# xmcd
#
# Track frame offsets:
# 150
# 16110
# 32882
# 47420
# 65775
# 82182
# 97570
# 113625
# 130632
# 143370
# 160695
# 175235
# 194942
# 209947
#
# Disc length: 3045 seconds
#
#
# Revision: 0
# Processed by: cddbd v1.4PL0 Copyright (c) Steve Scherf et al.
# Submitted via: FreeRIP 2.52 
#
DISCID=bc0be30e
DTITLE=Ronny and Rangel - 
DYEAR=1900
DGENRE=
TTITLE0=Sou seu anjo
TTITLE1=Caso com você
TTITLE2=E.U.T
TTITLE3=Jura
TTITLE4=Faltou Coragem
TTITLE5=Turum Tum Tum
TTITLE6=Nada é igual a esse amor
TTITLE7=Paixão Desigual
TTITLE8=Brincando com fogo
TTITLE9=Uma lágrima
TTITLE10=Bateu ficou
TTITLE11=O tempo vai curar ( A Promisse I Make )
TTITLE12=É saudade
TTITLE13=Deve ser amor
EXTD=
EXTT0=
EXTT1=
EXTT2=
EXTT3=
EXTT4=
EXTT5=
EXTT6=
EXTT7=
EXTT8=
EXTT9=
EXTT10=
EXTT11=
EXTT12=
EXTT13=
PLAYORDER=
